<mxfile host="Electron" modified="2024-03-08T19:58:22.321Z" agent="Mozilla/5.0 (X11; Linux x86_64) AppleWebKit/537.36 (KHTML, like Gecko) draw.io/23.1.5 Chrome/120.0.6099.109 Electron/28.1.0 Safari/537.36" etag="QLdPLuqx7ODHiHGYobeN" version="23.1.5" type="device">
  <diagram id="STEBfEphsbRQPfoHGECy" name="Página-1">
    <mxGraphModel dx="989" dy="578" grid="1" gridSize="10" guides="1" tooltips="1" connect="1" arrows="1" fold="1" page="1" pageScale="1" pageWidth="827" pageHeight="1169" math="0" shadow="0">
      <root>
        <mxCell id="0" />
        <mxCell id="1" parent="0" />
        <mxCell id="4ltl4C2bIEXPds2cLsU4-96" value="«componente»&lt;br&gt;&lt;b&gt;Client&lt;/b&gt;" style="html=1;dropTarget=0;whiteSpace=wrap;" parent="1" vertex="1">
          <mxGeometry x="560" y="760" width="140" height="60" as="geometry" />
        </mxCell>
        <mxCell id="4ltl4C2bIEXPds2cLsU4-97" value="" style="shape=module;jettyWidth=8;jettyHeight=4;" parent="4ltl4C2bIEXPds2cLsU4-96" vertex="1">
          <mxGeometry x="1" width="20" height="20" relative="1" as="geometry">
            <mxPoint x="-27" y="7" as="offset" />
          </mxGeometry>
        </mxCell>
        <mxCell id="-8FUYXukQDy1OAsdfqS--3" value="" style="ellipse;whiteSpace=wrap;html=1;align=center;aspect=fixed;fillColor=none;strokeColor=none;resizable=0;perimeter=centerPerimeter;rotatable=0;allowArrows=0;points=[];outlineConnect=1;" vertex="1" parent="1">
          <mxGeometry x="405" y="730" width="10" height="10" as="geometry" />
        </mxCell>
        <mxCell id="-8FUYXukQDy1OAsdfqS--24" value="«componente»&lt;br&gt;&lt;b&gt;UserList&lt;/b&gt;" style="html=1;dropTarget=0;whiteSpace=wrap;" vertex="1" parent="1">
          <mxGeometry x="280" y="780" width="140" height="60" as="geometry" />
        </mxCell>
        <mxCell id="-8FUYXukQDy1OAsdfqS--25" value="" style="shape=module;jettyWidth=8;jettyHeight=4;" vertex="1" parent="-8FUYXukQDy1OAsdfqS--24">
          <mxGeometry x="1" width="20" height="20" relative="1" as="geometry">
            <mxPoint x="-27" y="7" as="offset" />
          </mxGeometry>
        </mxCell>
        <mxCell id="-8FUYXukQDy1OAsdfqS--81" style="edgeStyle=orthogonalEdgeStyle;rounded=0;orthogonalLoop=1;jettySize=auto;html=1;exitX=1;exitY=0.5;exitDx=0;exitDy=0;entryX=0;entryY=0.5;entryDx=0;entryDy=0;" edge="1" parent="1" source="-8FUYXukQDy1OAsdfqS--26" target="-8FUYXukQDy1OAsdfqS--24">
          <mxGeometry relative="1" as="geometry" />
        </mxCell>
        <mxCell id="-8FUYXukQDy1OAsdfqS--26" value="«componente»&lt;br&gt;&lt;b&gt;ListResource&lt;/b&gt;" style="html=1;dropTarget=0;whiteSpace=wrap;" vertex="1" parent="1">
          <mxGeometry x="110" y="780" width="140" height="60" as="geometry" />
        </mxCell>
        <mxCell id="-8FUYXukQDy1OAsdfqS--27" value="" style="shape=module;jettyWidth=8;jettyHeight=4;" vertex="1" parent="-8FUYXukQDy1OAsdfqS--26">
          <mxGeometry x="1" width="20" height="20" relative="1" as="geometry">
            <mxPoint x="-27" y="7" as="offset" />
          </mxGeometry>
        </mxCell>
        <mxCell id="-8FUYXukQDy1OAsdfqS--28" value="«componente»&lt;br&gt;&lt;b&gt;UserInstance&lt;/b&gt;" style="html=1;dropTarget=0;whiteSpace=wrap;" vertex="1" parent="1">
          <mxGeometry x="280" y="890" width="140" height="60" as="geometry" />
        </mxCell>
        <mxCell id="-8FUYXukQDy1OAsdfqS--29" value="" style="shape=module;jettyWidth=8;jettyHeight=4;" vertex="1" parent="-8FUYXukQDy1OAsdfqS--28">
          <mxGeometry x="1" width="19" height="20" relative="1" as="geometry">
            <mxPoint x="-27" y="7" as="offset" />
          </mxGeometry>
        </mxCell>
        <mxCell id="-8FUYXukQDy1OAsdfqS--79" style="edgeStyle=orthogonalEdgeStyle;rounded=0;orthogonalLoop=1;jettySize=auto;html=1;exitX=1;exitY=0.5;exitDx=0;exitDy=0;entryX=0;entryY=0.5;entryDx=0;entryDy=0;" edge="1" parent="1" source="-8FUYXukQDy1OAsdfqS--30" target="-8FUYXukQDy1OAsdfqS--28">
          <mxGeometry relative="1" as="geometry" />
        </mxCell>
        <mxCell id="-8FUYXukQDy1OAsdfqS--30" value="«componente»&lt;br&gt;&lt;b&gt;InstanceResource&lt;/b&gt;" style="html=1;dropTarget=0;whiteSpace=wrap;" vertex="1" parent="1">
          <mxGeometry x="110" y="890" width="140" height="60" as="geometry" />
        </mxCell>
        <mxCell id="-8FUYXukQDy1OAsdfqS--31" value="" style="shape=module;jettyWidth=8;jettyHeight=4;" vertex="1" parent="-8FUYXukQDy1OAsdfqS--30">
          <mxGeometry x="1" width="20" height="20" relative="1" as="geometry">
            <mxPoint x="-27" y="7" as="offset" />
          </mxGeometry>
        </mxCell>
        <mxCell id="-8FUYXukQDy1OAsdfqS--32" value="«componente»&lt;br&gt;&lt;b&gt;UserPage&lt;/b&gt;" style="html=1;dropTarget=0;whiteSpace=wrap;" vertex="1" parent="1">
          <mxGeometry x="280" y="670" width="140" height="60" as="geometry" />
        </mxCell>
        <mxCell id="-8FUYXukQDy1OAsdfqS--33" value="" style="shape=module;jettyWidth=8;jettyHeight=4;" vertex="1" parent="-8FUYXukQDy1OAsdfqS--32">
          <mxGeometry x="1" width="20" height="20" relative="1" as="geometry">
            <mxPoint x="-27" y="7" as="offset" />
          </mxGeometry>
        </mxCell>
        <mxCell id="-8FUYXukQDy1OAsdfqS--82" style="edgeStyle=orthogonalEdgeStyle;rounded=0;orthogonalLoop=1;jettySize=auto;html=1;exitX=1;exitY=0.5;exitDx=0;exitDy=0;entryX=0;entryY=0.5;entryDx=0;entryDy=0;" edge="1" parent="1" source="-8FUYXukQDy1OAsdfqS--34" target="-8FUYXukQDy1OAsdfqS--32">
          <mxGeometry relative="1" as="geometry" />
        </mxCell>
        <mxCell id="-8FUYXukQDy1OAsdfqS--34" value="«componente»&lt;br&gt;&lt;b&gt;ListResource&lt;/b&gt;" style="html=1;dropTarget=0;whiteSpace=wrap;" vertex="1" parent="1">
          <mxGeometry x="110" y="670" width="140" height="60" as="geometry" />
        </mxCell>
        <mxCell id="-8FUYXukQDy1OAsdfqS--35" value="" style="shape=module;jettyWidth=8;jettyHeight=4;" vertex="1" parent="-8FUYXukQDy1OAsdfqS--34">
          <mxGeometry x="1" width="20" height="20" relative="1" as="geometry">
            <mxPoint x="-27" y="7" as="offset" />
          </mxGeometry>
        </mxCell>
        <mxCell id="-8FUYXukQDy1OAsdfqS--36" value="«componente»&lt;br&gt;&lt;b&gt;UserContext&lt;/b&gt;" style="html=1;dropTarget=0;whiteSpace=wrap;" vertex="1" parent="1">
          <mxGeometry x="280" y="1000" width="140" height="60" as="geometry" />
        </mxCell>
        <mxCell id="-8FUYXukQDy1OAsdfqS--37" value="" style="shape=module;jettyWidth=8;jettyHeight=4;" vertex="1" parent="-8FUYXukQDy1OAsdfqS--36">
          <mxGeometry x="1" width="20" height="20" relative="1" as="geometry">
            <mxPoint x="-27" y="7" as="offset" />
          </mxGeometry>
        </mxCell>
        <mxCell id="-8FUYXukQDy1OAsdfqS--80" style="edgeStyle=orthogonalEdgeStyle;rounded=0;orthogonalLoop=1;jettySize=auto;html=1;exitX=1;exitY=0.5;exitDx=0;exitDy=0;entryX=0;entryY=0.5;entryDx=0;entryDy=0;" edge="1" parent="1" source="-8FUYXukQDy1OAsdfqS--38" target="-8FUYXukQDy1OAsdfqS--36">
          <mxGeometry relative="1" as="geometry" />
        </mxCell>
        <mxCell id="-8FUYXukQDy1OAsdfqS--38" value="«componente»&lt;br&gt;&lt;b&gt;InstanceContext&lt;/b&gt;" style="html=1;dropTarget=0;whiteSpace=wrap;" vertex="1" parent="1">
          <mxGeometry x="110" y="1000" width="140" height="60" as="geometry" />
        </mxCell>
        <mxCell id="-8FUYXukQDy1OAsdfqS--39" value="" style="shape=module;jettyWidth=8;jettyHeight=4;" vertex="1" parent="-8FUYXukQDy1OAsdfqS--38">
          <mxGeometry x="1" width="20" height="20" relative="1" as="geometry">
            <mxPoint x="-27" y="7" as="offset" />
          </mxGeometry>
        </mxCell>
        <mxCell id="-8FUYXukQDy1OAsdfqS--40" value="" style="endArrow=none;html=1;rounded=0;" edge="1" parent="1">
          <mxGeometry width="50" height="50" relative="1" as="geometry">
            <mxPoint x="520" y="1030" as="sourcePoint" />
            <mxPoint x="520" y="700" as="targetPoint" />
          </mxGeometry>
        </mxCell>
        <mxCell id="-8FUYXukQDy1OAsdfqS--53" value="" style="rounded=0;orthogonalLoop=1;jettySize=auto;html=1;endArrow=halfCircle;endFill=0;endSize=6;strokeWidth=1;sketch=0;" edge="1" target="-8FUYXukQDy1OAsdfqS--55" parent="1">
          <mxGeometry relative="1" as="geometry">
            <mxPoint x="520" y="830" as="sourcePoint" />
          </mxGeometry>
        </mxCell>
        <mxCell id="-8FUYXukQDy1OAsdfqS--60" value="contiene&lt;br&gt;como&lt;br&gt;parámetro" style="edgeLabel;html=1;align=center;verticalAlign=middle;resizable=0;points=[];" vertex="1" connectable="0" parent="-8FUYXukQDy1OAsdfqS--53">
          <mxGeometry x="0.3862" relative="1" as="geometry">
            <mxPoint x="20" as="offset" />
          </mxGeometry>
        </mxCell>
        <mxCell id="-8FUYXukQDy1OAsdfqS--54" value="" style="rounded=0;orthogonalLoop=1;jettySize=auto;html=1;endArrow=oval;endFill=0;sketch=0;sourcePerimeterSpacing=0;targetPerimeterSpacing=0;endSize=10;" edge="1" target="-8FUYXukQDy1OAsdfqS--55" parent="1">
          <mxGeometry relative="1" as="geometry">
            <mxPoint x="420" y="830" as="sourcePoint" />
          </mxGeometry>
        </mxCell>
        <mxCell id="-8FUYXukQDy1OAsdfqS--55" value="" style="ellipse;whiteSpace=wrap;html=1;align=center;aspect=fixed;fillColor=none;strokeColor=none;resizable=0;perimeter=centerPerimeter;rotatable=0;allowArrows=0;points=[];outlineConnect=1;" vertex="1" parent="1">
          <mxGeometry x="435" y="825" width="10" height="10" as="geometry" />
        </mxCell>
        <mxCell id="-8FUYXukQDy1OAsdfqS--56" value="" style="rounded=0;orthogonalLoop=1;jettySize=auto;html=1;endArrow=halfCircle;endFill=0;endSize=6;strokeWidth=1;sketch=0;" edge="1" parent="1">
          <mxGeometry relative="1" as="geometry">
            <mxPoint x="420" y="699.71" as="sourcePoint" />
            <mxPoint x="500" y="700" as="targetPoint" />
          </mxGeometry>
        </mxCell>
        <mxCell id="-8FUYXukQDy1OAsdfqS--116" value="llama&lt;br&gt;request" style="edgeLabel;html=1;align=center;verticalAlign=middle;resizable=0;points=[];" vertex="1" connectable="0" parent="-8FUYXukQDy1OAsdfqS--56">
          <mxGeometry x="-0.1906" y="1" relative="1" as="geometry">
            <mxPoint x="8" y="1" as="offset" />
          </mxGeometry>
        </mxCell>
        <mxCell id="-8FUYXukQDy1OAsdfqS--57" value="" style="rounded=0;orthogonalLoop=1;jettySize=auto;html=1;endArrow=oval;endFill=0;sketch=0;sourcePerimeterSpacing=0;targetPerimeterSpacing=0;endSize=10;" edge="1" parent="1">
          <mxGeometry relative="1" as="geometry">
            <mxPoint x="520" y="700" as="sourcePoint" />
            <mxPoint x="500" y="700" as="targetPoint" />
          </mxGeometry>
        </mxCell>
        <mxCell id="-8FUYXukQDy1OAsdfqS--58" value="" style="ellipse;whiteSpace=wrap;html=1;align=center;aspect=fixed;fillColor=none;strokeColor=none;resizable=0;perimeter=centerPerimeter;rotatable=0;allowArrows=0;points=[];outlineConnect=1;" vertex="1" parent="1">
          <mxGeometry x="485" y="710" width="10" height="10" as="geometry" />
        </mxCell>
        <mxCell id="-8FUYXukQDy1OAsdfqS--65" value="" style="rounded=0;orthogonalLoop=1;jettySize=auto;html=1;endArrow=halfCircle;endFill=0;endSize=6;strokeWidth=1;sketch=0;" edge="1" parent="1">
          <mxGeometry relative="1" as="geometry">
            <mxPoint x="420" y="790" as="sourcePoint" />
            <mxPoint x="500" y="790" as="targetPoint" />
          </mxGeometry>
        </mxCell>
        <mxCell id="-8FUYXukQDy1OAsdfqS--115" value="llama&lt;br&gt;request" style="edgeLabel;html=1;align=center;verticalAlign=middle;resizable=0;points=[];" vertex="1" connectable="0" parent="-8FUYXukQDy1OAsdfqS--65">
          <mxGeometry x="-0.2595" y="-2" relative="1" as="geometry">
            <mxPoint x="10" as="offset" />
          </mxGeometry>
        </mxCell>
        <mxCell id="-8FUYXukQDy1OAsdfqS--66" value="" style="rounded=0;orthogonalLoop=1;jettySize=auto;html=1;endArrow=oval;endFill=0;sketch=0;sourcePerimeterSpacing=0;targetPerimeterSpacing=0;endSize=10;" edge="1" parent="1">
          <mxGeometry relative="1" as="geometry">
            <mxPoint x="520" y="790" as="sourcePoint" />
            <mxPoint x="500" y="790" as="targetPoint" />
          </mxGeometry>
        </mxCell>
        <mxCell id="-8FUYXukQDy1OAsdfqS--69" value="" style="rounded=0;orthogonalLoop=1;jettySize=auto;html=1;endArrow=halfCircle;endFill=0;endSize=6;strokeWidth=1;sketch=0;" edge="1" parent="1">
          <mxGeometry relative="1" as="geometry">
            <mxPoint x="420" y="1029.57" as="sourcePoint" />
            <mxPoint x="500" y="1030" as="targetPoint" />
          </mxGeometry>
        </mxCell>
        <mxCell id="-8FUYXukQDy1OAsdfqS--114" value="llama&lt;br&gt;request" style="edgeLabel;html=1;align=center;verticalAlign=middle;resizable=0;points=[];" vertex="1" connectable="0" parent="-8FUYXukQDy1OAsdfqS--69">
          <mxGeometry x="-0.3455" y="-1" relative="1" as="geometry">
            <mxPoint x="14" y="-1" as="offset" />
          </mxGeometry>
        </mxCell>
        <mxCell id="-8FUYXukQDy1OAsdfqS--76" value="" style="rounded=0;orthogonalLoop=1;jettySize=auto;html=1;endArrow=oval;endFill=0;sketch=0;sourcePerimeterSpacing=0;targetPerimeterSpacing=0;endSize=10;exitX=0.5;exitY=0;exitDx=0;exitDy=0;" edge="1" target="-8FUYXukQDy1OAsdfqS--77" parent="1" source="-8FUYXukQDy1OAsdfqS--36">
          <mxGeometry relative="1" as="geometry">
            <mxPoint x="294" y="975" as="sourcePoint" />
          </mxGeometry>
        </mxCell>
        <mxCell id="-8FUYXukQDy1OAsdfqS--78" value="" style="rounded=0;orthogonalLoop=1;jettySize=auto;html=1;endArrow=halfCircle;endFill=0;endSize=6;strokeWidth=1;sketch=0;exitX=0.5;exitY=1;exitDx=0;exitDy=0;" edge="1" parent="1" source="-8FUYXukQDy1OAsdfqS--28" target="-8FUYXukQDy1OAsdfqS--77">
          <mxGeometry relative="1" as="geometry">
            <mxPoint x="340" y="950" as="sourcePoint" />
            <mxPoint x="340" y="975" as="targetPoint" />
          </mxGeometry>
        </mxCell>
        <mxCell id="-8FUYXukQDy1OAsdfqS--77" value="" style="ellipse;whiteSpace=wrap;html=1;align=center;aspect=fixed;fillColor=none;strokeColor=none;resizable=0;perimeter=centerPerimeter;rotatable=0;allowArrows=0;points=[];outlineConnect=1;" vertex="1" parent="1">
          <mxGeometry x="345" y="970" width="10" height="10" as="geometry" />
        </mxCell>
        <mxCell id="-8FUYXukQDy1OAsdfqS--109" value="" style="rounded=0;orthogonalLoop=1;jettySize=auto;html=1;endArrow=halfCircle;endFill=0;endSize=6;strokeWidth=1;sketch=0;exitX=0.5;exitY=1;exitDx=0;exitDy=0;" edge="1" parent="1">
          <mxGeometry relative="1" as="geometry">
            <mxPoint x="350" y="840" as="sourcePoint" />
            <mxPoint x="350" y="865" as="targetPoint" />
          </mxGeometry>
        </mxCell>
        <mxCell id="-8FUYXukQDy1OAsdfqS--110" value="" style="rounded=0;orthogonalLoop=1;jettySize=auto;html=1;endArrow=oval;endFill=0;sketch=0;sourcePerimeterSpacing=0;targetPerimeterSpacing=0;endSize=10;exitX=0.5;exitY=0;exitDx=0;exitDy=0;" edge="1" parent="1">
          <mxGeometry relative="1" as="geometry">
            <mxPoint x="350" y="890" as="sourcePoint" />
            <mxPoint x="350" y="865" as="targetPoint" />
          </mxGeometry>
        </mxCell>
        <mxCell id="-8FUYXukQDy1OAsdfqS--111" value="" style="rounded=0;orthogonalLoop=1;jettySize=auto;html=1;endArrow=oval;endFill=0;sketch=0;sourcePerimeterSpacing=0;targetPerimeterSpacing=0;endSize=10;exitX=0.5;exitY=1;exitDx=0;exitDy=0;" edge="1" parent="1" source="-8FUYXukQDy1OAsdfqS--32">
          <mxGeometry relative="1" as="geometry">
            <mxPoint x="339.83" y="780" as="sourcePoint" />
            <mxPoint x="350" y="755" as="targetPoint" />
          </mxGeometry>
        </mxCell>
        <mxCell id="-8FUYXukQDy1OAsdfqS--112" value="" style="rounded=0;orthogonalLoop=1;jettySize=auto;html=1;endArrow=halfCircle;endFill=0;endSize=6;strokeWidth=1;sketch=0;exitX=0.5;exitY=0;exitDx=0;exitDy=0;" edge="1" parent="1" source="-8FUYXukQDy1OAsdfqS--24">
          <mxGeometry relative="1" as="geometry">
            <mxPoint x="339.83" y="730" as="sourcePoint" />
            <mxPoint x="350" y="755" as="targetPoint" />
          </mxGeometry>
        </mxCell>
        <mxCell id="-8FUYXukQDy1OAsdfqS--113" value="" style="rounded=0;orthogonalLoop=1;jettySize=auto;html=1;endArrow=oval;endFill=0;sketch=0;sourcePerimeterSpacing=0;targetPerimeterSpacing=0;endSize=10;" edge="1" parent="1">
          <mxGeometry relative="1" as="geometry">
            <mxPoint x="520" y="1030" as="sourcePoint" />
            <mxPoint x="500" y="1030" as="targetPoint" />
          </mxGeometry>
        </mxCell>
        <mxCell id="-8FUYXukQDy1OAsdfqS--117" value="" style="endArrow=none;html=1;rounded=0;" edge="1" parent="1">
          <mxGeometry width="50" height="50" relative="1" as="geometry">
            <mxPoint x="520" y="949.31" as="sourcePoint" />
            <mxPoint x="560" y="949.31" as="targetPoint" />
          </mxGeometry>
        </mxCell>
        <mxCell id="-8FUYXukQDy1OAsdfqS--118" value="«componente»&lt;br&gt;&lt;b&gt;V1&lt;/b&gt;" style="html=1;dropTarget=0;whiteSpace=wrap;" vertex="1" parent="1">
          <mxGeometry x="560" y="920" width="140" height="60" as="geometry" />
        </mxCell>
        <mxCell id="-8FUYXukQDy1OAsdfqS--119" value="" style="shape=module;jettyWidth=8;jettyHeight=4;" vertex="1" parent="-8FUYXukQDy1OAsdfqS--118">
          <mxGeometry x="1" width="20" height="20" relative="1" as="geometry">
            <mxPoint x="-27" y="7" as="offset" />
          </mxGeometry>
        </mxCell>
        <mxCell id="-8FUYXukQDy1OAsdfqS--120" value="" style="rounded=0;orthogonalLoop=1;jettySize=auto;html=1;endArrow=oval;endFill=0;sketch=0;sourcePerimeterSpacing=0;targetPerimeterSpacing=0;endSize=10;exitX=0.5;exitY=1;exitDx=0;exitDy=0;" edge="1" parent="1" source="4ltl4C2bIEXPds2cLsU4-96">
          <mxGeometry relative="1" as="geometry">
            <mxPoint x="360" y="1010" as="sourcePoint" />
            <mxPoint x="630" y="850" as="targetPoint" />
          </mxGeometry>
        </mxCell>
        <mxCell id="-8FUYXukQDy1OAsdfqS--121" value="" style="rounded=0;orthogonalLoop=1;jettySize=auto;html=1;endArrow=halfCircle;endFill=0;endSize=6;strokeWidth=1;sketch=0;exitX=0.5;exitY=0;exitDx=0;exitDy=0;" edge="1" parent="1" source="-8FUYXukQDy1OAsdfqS--118">
          <mxGeometry relative="1" as="geometry">
            <mxPoint x="360" y="960" as="sourcePoint" />
            <mxPoint x="630" y="850" as="targetPoint" />
          </mxGeometry>
        </mxCell>
        <mxCell id="-8FUYXukQDy1OAsdfqS--122" value="llama&lt;br&gt;request" style="edgeLabel;html=1;align=center;verticalAlign=middle;resizable=0;points=[];" vertex="1" connectable="0" parent="-8FUYXukQDy1OAsdfqS--121">
          <mxGeometry x="-0.2201" y="-3" relative="1" as="geometry">
            <mxPoint x="-3" y="-7" as="offset" />
          </mxGeometry>
        </mxCell>
      </root>
    </mxGraphModel>
  </diagram>
</mxfile>
